<svg xmlns="http://www.w3.org/2000/svg" viewBox="0 0 400 200" fill="none">
  <!-- Plate -->
  <ellipse cx="200" cy="120" rx="90" ry="50" fill="#e5e7eb" opacity="0.5"/>
  <ellipse cx="200" cy="115" rx="80" ry="44" fill="#f3f4f6"/>
  <!-- Leaf / vegetable accent -->
  <path d="M160 90 Q170 60 200 70 Q190 95 160 90Z" fill="#16a34a" opacity="0.7"/>
  <path d="M175 85 Q185 55 215 65 Q205 90 175 85Z" fill="#16a34a" opacity="0.5"/>
  <!-- Protein circle -->
  <circle cx="220" cy="105" r="18" fill="#f59e0b" opacity="0.6"/>
  <!-- Grain dots -->
  <circle cx="185" cy="120" r="4" fill="#16a34a" opacity="0.35"/>
  <circle cx="195" cy="128" r="3.5" fill="#16a34a" opacity="0.3"/>
  <circle cx="178" cy="130" r="3" fill="#16a34a" opacity="0.25"/>
  <!-- Fork -->
  <line x1="120" y1="60" x2="120" y2="160" stroke="#9ca3af" stroke-width="2.5" stroke-linecap="round"/>
  <line x1="112" y1="60" x2="112" y2="90" stroke="#9ca3af" stroke-width="2" stroke-linecap="round"/>
  <line x1="120" y1="60" x2="120" y2="90" stroke="#9ca3af" stroke-width="2" stroke-linecap="round"/>
  <line x1="128" y1="60" x2="128" y2="90" stroke="#9ca3af" stroke-width="2" stroke-linecap="round"/>
  <!-- Decorative circles -->
  <circle cx="320" cy="40" r="20" fill="#16a34a" opacity="0.1"/>
  <circle cx="60" cy="160" r="14" fill="#f59e0b" opacity="0.12"/>
  <circle cx="340" cy="150" r="10" fill="#16a34a" opacity="0.08"/>
</svg>
